<svg width="211" height="41" viewBox="0 0 211 41" fill="none" xmlns="http://www.w3.org/2000/svg">
<path d="M71 8.04883H82.3723C85.1133 8.04883 87.4322 8.48874 89.3289 9.36856C91.0753 10.1237 92.5581 11.4055 93.5821 13.0449C94.5406 14.6645 95.0318 16.531 94.9984 18.4267C95.0195 20.3312 94.5091 22.2019 93.5279 23.817C92.4334 25.5233 90.8682 26.8542 89.0332 27.6391C87.0225 28.5818 84.5301 29.0517 81.5558 29.0488H71V8.04883ZM81.4392 23.7056C83.2859 23.7056 84.705 23.2314 85.6965 22.2831C86.1992 21.7816 86.5919 21.1755 86.8484 20.5052C87.1049 19.835 87.2192 19.1161 87.1836 18.3967C87.2145 17.7289 87.1131 17.0617 86.8853 16.4356C86.6576 15.8094 86.3084 15.2375 85.8589 14.7546C84.9703 13.8462 83.6331 13.3906 81.8474 13.3877H78.2899V23.7056H81.4392Z" fill="#5865F2"/>
<path d="M112.254 28.4498C110.755 28.0821 109.321 27.4956 108 26.71V21.9754C109.153 22.7964 110.452 23.4014 111.83 23.76C113.337 24.2103 114.903 24.4449 116.479 24.4568C117.023 24.4852 117.567 24.3933 118.069 24.1879C118.427 24.0086 118.606 23.7804 118.606 23.5441C118.61 23.412 118.586 23.2806 118.536 23.158C118.486 23.0353 118.411 22.9241 118.315 22.831C117.983 22.5807 117.592 22.4142 117.179 22.3462L113.682 21.5761C111.678 21.1197 110.256 20.4882 109.415 19.6814C108.993 19.2647 108.664 18.7666 108.449 18.2188C108.234 17.6709 108.138 17.0853 108.167 16.4992C108.152 15.4368 108.548 14.4083 109.274 13.6185C110.134 12.7272 111.22 12.0738 112.421 11.7238C113.966 11.2483 115.58 11.0213 117.199 11.0515C118.711 11.0376 120.219 11.2101 121.687 11.5649C122.872 11.8398 124.011 12.2818 125.067 12.8769V17.3589C124.077 16.7966 123.012 16.3702 121.903 16.0917C120.702 15.7764 119.463 15.6175 118.219 15.6191C116.393 15.6191 115.48 15.9233 115.48 16.5318C115.477 16.6673 115.515 16.8006 115.589 16.9151C115.663 17.0297 115.77 17.1202 115.897 17.1755C116.395 17.3832 116.918 17.5309 117.453 17.6156L120.367 18.129C122.26 18.455 123.671 19.0254 124.601 19.8403C125.53 20.6552 125.996 21.8477 125.999 23.4178C126.014 24.2434 125.808 25.0584 125.401 25.7818C124.994 26.5052 124.401 27.1118 123.681 27.5412C122.146 28.549 119.955 29.0515 117.108 29.0488C115.471 29.0513 113.84 28.85 112.254 28.4498V28.4498Z" fill="#5865F2"/>
<path d="M132.884 27.8393C131.37 27.1396 130.094 26.0075 129.215 24.5839C128.395 23.1878 127.975 21.5907 128.001 19.9693C127.977 18.3489 128.419 16.756 129.276 15.3832C130.188 13.9819 131.487 12.8789 133.014 12.2091C134.87 11.3957 136.88 11.0012 138.904 11.0534C141.736 11.0534 144.086 11.6516 145.955 12.848V18.0689C145.244 17.5881 144.468 17.2139 143.65 16.958C142.734 16.6672 141.778 16.523 140.818 16.5307C139.062 16.5307 137.688 16.8535 136.695 17.4992C136.249 17.7497 135.877 18.1145 135.616 18.5567C135.356 18.9989 135.216 19.5025 135.212 20.0164C135.208 20.5304 135.34 21.0362 135.593 21.4825C135.846 21.9289 136.213 22.2997 136.655 22.5574C137.618 23.2112 139.015 23.5381 140.846 23.5381C141.791 23.5403 142.732 23.4032 143.637 23.1311C144.464 22.8929 145.257 22.5525 146 22.1179V27.1638C143.811 28.4476 141.312 29.0982 138.779 29.0438C136.748 29.0996 134.732 28.6876 132.884 27.8393V27.8393Z" fill="#5865F2"/>
<path d="M153.121 27.8575C151.562 27.1525 150.24 26.0199 149.311 24.5937C148.435 23.1974 147.981 21.5823 148.001 19.9387C147.973 18.3146 148.429 16.7183 149.311 15.349C150.245 13.959 151.561 12.8632 153.104 12.1912C156.894 10.668 161.134 10.668 164.925 12.1912C166.461 12.8581 167.772 13.9485 168.701 15.3326C169.577 16.707 170.028 18.3053 169.999 19.9305C170.019 21.5725 169.569 23.1866 168.701 24.5856C167.782 26.0127 166.467 27.1462 164.912 27.8494C163.049 28.6407 161.043 29.0488 159.016 29.0488C156.989 29.0488 154.984 28.6407 153.121 27.8494V27.8575ZM161.881 22.7905C162.237 22.4262 162.514 21.9937 162.696 21.5194C162.877 21.0451 162.959 20.5391 162.935 20.0325C162.96 19.5307 162.879 19.0291 162.698 18.5599C162.516 18.0907 162.238 17.6641 161.881 17.3073C161.493 16.9553 161.039 16.6841 160.543 16.5096C160.048 16.3351 159.523 16.2609 158.998 16.2914C158.473 16.2641 157.949 16.3398 157.454 16.5141C156.959 16.6884 156.504 16.958 156.115 17.3073C155.759 17.6649 155.482 18.0917 155.301 18.5608C155.121 19.0299 155.04 19.531 155.065 20.0325C155.042 20.5388 155.123 21.0444 155.303 21.5185C155.484 21.9927 155.76 22.4254 156.115 22.7905C156.5 23.1468 156.954 23.4225 157.449 23.6013C157.945 23.78 158.471 23.8581 158.998 23.8308C159.525 23.8612 160.052 23.7845 160.548 23.6056C161.044 23.4267 161.497 23.1493 161.881 22.7905V22.7905Z" fill="#5865F2"/>
<path d="M188 11.7728V18.2793C187.122 17.7434 186.109 17.4819 185.087 17.5272C183.52 17.5272 182.309 18.0171 181.469 18.9884C180.628 19.9596 180.208 21.468 180.208 23.5136V29.0488H173V11.4505H180.061V17.0373C180.453 14.9917 181.086 13.4832 181.96 12.512C182.384 12.0344 182.904 11.6565 183.485 11.4042C184.065 11.152 184.692 11.0314 185.323 11.0509C186.264 11.0246 187.194 11.2752 188 11.7728V11.7728Z" fill="#5865F2"/>
<path d="M211 8.04883V28.4779H204.001V24.7488C203.473 26.0764 202.525 27.1974 201.3 27.9428C199.947 28.7084 198.408 29.0898 196.852 29.0453C195.387 29.0792 193.945 28.6799 192.71 27.8982C191.513 27.1261 190.56 26.0345 189.959 24.7488C189.304 23.3295 188.977 21.7823 189.004 20.2211C188.958 18.6025 189.305 16.9966 190.016 15.5395C190.67 14.2048 191.69 13.0807 192.958 12.2968C194.263 11.5119 195.764 11.1087 197.288 11.1335C200.618 11.1335 202.856 12.571 204.001 15.4462V8.04883H211ZM202.973 22.7221C203.33 22.3734 203.609 21.9547 203.794 21.4927C203.979 21.0307 204.065 20.5355 204.046 20.0387C204.061 19.5568 203.974 19.0772 203.789 18.6315C203.604 18.1857 203.326 17.784 202.973 17.4527C202.172 16.8052 201.171 16.4516 200.139 16.4516C199.106 16.4516 198.105 16.8052 197.305 17.4527C196.953 17.7916 196.677 18.2003 196.495 18.6521C196.313 19.104 196.229 19.5889 196.248 20.0752C196.23 20.5661 196.316 21.0553 196.5 21.5112C196.684 21.9671 196.962 22.3796 197.317 22.7221C197.692 23.0682 198.132 23.3366 198.613 23.5113C199.094 23.686 199.605 23.7636 200.116 23.7395C200.637 23.768 201.158 23.6927 201.648 23.518C202.139 23.3432 202.589 23.0726 202.973 22.7221V22.7221Z" fill="#5865F2"/>
<path d="M44.896 3.39877C41.4139 1.81125 37.7378 0.685017 33.9617 0.0488281C33.445 0.968663 32.9775 1.91505 32.5611 2.88403C28.5388 2.28047 24.4485 2.28047 20.4262 2.88403C20.0096 1.91515 19.5421 0.968774 19.0256 0.0488281C15.2471 0.690389 11.5686 1.8193 8.08292 3.40707C1.16301 13.6022 -0.712875 23.5441 0.225066 33.3448C4.27754 36.3264 8.81342 38.5939 13.6355 40.0488C14.7213 38.5946 15.6821 37.0519 16.5077 35.437C14.9396 34.8538 13.4261 34.1342 11.9848 33.2867C12.3641 33.0127 12.7351 32.7304 13.0936 32.4565C17.2877 34.4205 21.8652 35.4389 26.4999 35.4389C31.1346 35.4389 35.7122 34.4205 39.9062 32.4565C40.2689 32.7512 40.6399 33.0335 41.0151 33.2867C39.5709 34.1356 38.0546 34.8565 36.4838 35.4411C37.3083 37.0553 38.2692 38.5967 39.3559 40.0488C44.1822 38.5997 48.7215 36.3333 52.7747 33.349V33.349C53.8753 21.9832 50.8947 12.1327 44.896 3.39877ZM17.6958 27.3174C15.082 27.3174 12.9227 24.9554 12.9227 22.0497C12.9227 19.1439 15.007 16.7612 17.6874 16.7612C20.3679 16.7612 22.5105 19.1439 22.4647 22.0497C22.4188 24.9554 20.3595 27.3174 17.6958 27.3174ZM35.304 27.3174C32.6861 27.3174 30.5351 24.9554 30.5351 22.0497C30.5351 19.1439 32.6194 16.7612 35.304 16.7612C37.9886 16.7612 40.1146 19.1439 40.0688 22.0497C40.0229 24.9554 37.9678 27.3174 35.304 27.3174Z" fill="#5865F2"/>
<path d="M101.5 14.0488C103.433 14.0488 105 12.4818 105 10.5488C105 8.61583 103.433 7.04883 101.5 7.04883C99.567 7.04883 98 8.61583 98 10.5488C98 12.4818 99.567 14.0488 101.5 14.0488Z" fill="#5865F2"/>
<path d="M98 16.0488C99.1081 16.5183 100.298 16.7602 101.5 16.7602C102.702 16.7602 103.892 16.5183 105 16.0488V29.0488H98V16.0488Z" fill="#5865F2"/>
</svg>
