<svg width="162" height="41" viewBox="0 0 162 41" fill="none" xmlns="http://www.w3.org/2000/svg">
<path d="M0.5 34.6254H8.2957V25.1057H19.4271V17.9097H8.2957V14.1992H20.8513V6.92822H0.5V34.6254Z" fill="black"/>
<path d="M85.6488 34.6254H94.5314L88.872 24.6185C92.3201 22.8569 93.6319 19.5962 93.6319 16.3355C93.6319 11.1259 90.3712 6.92822 83.1377 6.92822H71.0693V34.6254H78.865V25.9677H81.2637L85.6488 34.6254ZM78.865 14.0118H83.0627C84.7118 14.0118 85.6113 15.1737 85.6113 16.5979C85.6113 17.9097 84.8617 19.2214 82.8753 19.2214H78.865V14.0118Z" fill="black"/>
<path d="M111.615 35.1127C117.35 35.1127 123.384 32.1893 123.384 23.5316V6.92822H115.513V23.5316C115.513 26.4924 113.602 27.6168 111.615 27.6168C109.591 27.6168 107.717 26.4924 107.717 23.5316V6.92822H99.8467V23.5316C99.8467 32.1893 105.918 35.1127 111.615 35.1127Z" fill="black"/>
<path d="M130.432 34.6254H138.077V22.6321L144.374 31.2898H147.41L153.706 22.6321V34.6254H161.427V6.92822H155.355L145.911 20.3458L136.428 6.92822H130.432V34.6254Z" fill="black"/>
<path d="M45.0547 0.71875C34.0282 0.71875 25.0547 9.69228 25.0547 20.7187C25.0547 31.7452 34.0282 40.7187 45.0547 40.7187C56.0812 40.7187 65.0547 31.7452 65.0547 20.7187C65.0547 9.69228 56.0841 0.71875 45.0547 0.71875ZM53.7547 20.7187C53.7547 25.5158 49.8517 29.4187 45.0547 29.4187C40.2576 29.4187 36.3547 25.5158 36.3547 20.7187C36.3547 15.9217 40.2576 12.0187 45.0547 12.0187C49.8517 12.0187 53.7547 15.9217 53.7547 20.7187ZM42.1753 35.2717C43.1076 35.457 44.0694 35.554 45.0547 35.554C46.04 35.554 47.0017 35.454 47.9341 35.2717L47.9606 35.2923L45.0547 40.3276L42.1459 35.2923L42.1723 35.2717H42.1753ZM59.0959 15.9423C58.4635 14.0893 57.4753 12.404 56.2135 10.9599L56.2194 10.9129H62.04L59.1282 15.954L59.0959 15.9393V15.9423ZM55.9253 10.6423C54.6194 9.23346 53.0429 8.08051 51.2782 7.25993L51.2665 7.22169L56.5782 4.85699L55.9694 10.6393H55.9253V10.6423ZM51.1812 6.96287L49.4017 1.48346C51.9723 2.06287 54.3517 3.14816 56.4341 4.62463L51.1812 6.96287ZM50.9312 7.07463L50.8988 7.08934C49.1635 6.34228 47.2606 5.92169 45.2635 5.89228L45.24 5.86581L49.1341 1.54228L50.9312 7.07463ZM44.8488 5.89228C42.8488 5.91875 40.9459 6.34228 39.2106 7.08934L39.1782 7.07463L40.9782 1.53934L44.8723 5.86581L44.8488 5.89228ZM38.9282 6.96287L33.6753 4.62463C35.7576 3.14816 38.14 2.06287 40.7106 1.48346L38.9312 6.96287H38.9282ZM38.8429 7.22463L38.8312 7.25993C37.0694 8.07757 35.4929 9.23346 34.1841 10.6423H34.137L33.5282 4.85993L38.84 7.22463H38.8429ZM33.8988 10.9629C32.637 12.404 31.6488 14.0923 31.0165 15.9423L30.9841 15.957L28.0753 10.9158H33.8929L33.8988 10.9629ZM30.7341 16.0687L25.4694 18.4099C25.7782 15.7746 26.6076 13.2952 27.8547 11.0805L30.7341 16.0658V16.0687ZM30.8723 16.307L30.887 16.3305C30.4547 17.7187 30.2223 19.1952 30.2223 20.7217C30.2223 21.1746 30.2459 21.6246 30.287 22.0687L30.2635 22.0952L25.5517 18.6717L30.8694 16.304L30.8723 16.307ZM30.3312 22.4835C30.5635 24.4482 31.1841 26.2982 32.1106 27.954L32.0988 27.9923L26.4106 26.7835L30.3017 22.4629L30.3312 22.4835ZM32.0135 28.254L30.237 33.7217C28.5459 31.7952 27.2223 29.5364 26.3812 27.057L32.0135 28.254ZM32.2841 28.3099L32.3223 28.3187C33.3194 29.9835 34.6282 31.4364 36.1723 32.5952V32.6335L30.4841 33.8423L32.2812 28.3099H32.2841ZM36.5194 32.8393C38.0782 33.9423 39.8576 34.7511 41.7782 35.1864L41.7959 35.2187L37.087 38.6393L36.4782 32.8511L36.5194 32.8423V32.8393ZM41.9312 35.454L44.8106 40.4423C42.137 40.4099 39.587 39.8423 37.2694 38.8423L41.9312 35.454ZM48.19 35.454L52.8517 38.8423C50.5312 39.8423 47.9841 40.4099 45.3106 40.4423L48.19 35.454ZM48.3282 35.2158L48.3459 35.1835C50.2635 34.7482 52.0429 33.9393 53.6017 32.8393L53.6429 32.8482L53.0341 38.6364L48.3282 35.2158ZM53.9459 32.5923C55.4929 31.4335 56.8017 29.9776 57.7988 28.3129L57.837 28.304L59.6341 33.8393L53.94 32.6276V32.5893L53.9459 32.5923ZM58.1106 28.2482L63.7459 27.0511C62.9017 29.5305 61.5812 31.7893 59.887 33.7187L58.1106 28.2511V28.2482ZM58.0253 27.9864L58.0135 27.9482C58.94 26.2923 59.5606 24.4452 59.7929 22.4776L59.8223 22.457L63.7135 26.7776L58.0253 27.9864ZM59.837 22.0629C59.8782 21.6187 59.9017 21.1717 59.9017 20.7187C59.9017 19.1923 59.6694 17.7158 59.237 16.3276L59.2517 16.304L64.5694 18.6717L59.8635 22.0923L59.84 22.0658L59.837 22.0629ZM59.39 16.0658L62.2694 11.0776C63.5164 13.2923 64.3459 15.7717 64.6547 18.4099L59.39 16.0658ZM62.0164 10.6393H56.2576L56.8606 4.91287C58.9312 6.46287 60.687 8.40993 62.0164 10.6393ZM48.9165 1.37463L45.0576 5.65993L41.1959 1.37463C42.4459 1.12463 43.7341 0.992279 45.0547 0.992279C46.3753 0.992279 47.6665 1.12463 48.9135 1.37463H48.9165ZM33.2606 4.91581L33.8635 10.6393H28.1076C29.437 8.40993 31.1929 6.46287 33.2635 4.91581H33.2606ZM25.4135 18.9099L30.0753 22.2982L26.2165 26.5835C25.64 24.7305 25.3282 22.7629 25.3282 20.7217C25.3282 20.1099 25.3606 19.507 25.4135 18.9099ZM30.5753 34.1011L36.2017 32.904L36.8047 38.6335C34.44 37.5393 32.3253 35.9923 30.5753 34.1011ZM53.3047 38.6364L53.9076 32.907L59.537 34.104C57.787 35.9952 55.6723 37.5423 53.3076 38.6364H53.3047ZM63.8959 26.5835L60.037 22.2982L64.6988 18.9129C64.7547 19.5099 64.7841 20.1129 64.7841 20.7246C64.7841 22.7658 64.4723 24.7335 63.8959 26.5864V26.5835Z" fill="#010000"/>
<circle cx="45.0554" cy="20.7185" r="8.86986" fill="black"/>
<circle cx="45.0547" cy="20.7183" r="7.11039" fill="white"/>
</svg>
