<svg width="30" height="31" viewBox="0 0 30 31" fill="none" xmlns="http://www.w3.org/2000/svg"><rect width="30" height="30.0024" fill="black"/><path d="M25.7899 9.15503C25.0849 9.46753 24.3371 9.67255 23.5713 9.76326C24.3777 9.28099 24.9813 8.52212 25.2699 7.62792C24.5116 8.07822 23.6817 8.3953 22.8163 8.5654C22.2859 8.00141 21.5983 7.6097 20.8426 7.44101C20.087 7.27232 19.2981 7.33443 18.5782 7.61929C17.8582 7.90415 17.2404 8.39863 16.8048 9.03868C16.3691 9.67873 16.1357 10.4349 16.1348 11.2091C16.1345 11.5047 16.1678 11.7993 16.2339 12.0873C14.6976 12.0105 13.1945 11.6114 11.8223 10.916C10.4502 10.2206 9.23956 9.24445 8.26912 8.05085C7.77539 8.90151 7.62421 9.90828 7.84635 10.8664C8.06848 11.8246 8.64724 12.6621 9.46491 13.2087C8.85156 13.1902 8.25159 13.0248 7.71531 12.7266C7.71531 12.7431 7.71531 12.7589 7.71531 12.7755C7.71542 13.6677 8.02415 14.5323 8.58911 15.2229C9.15408 15.9134 9.9405 16.3872 10.815 16.564C10.2461 16.7189 9.64952 16.7424 9.07022 16.6329C9.31628 17.4012 9.7965 18.0733 10.4436 18.555C11.0907 19.0367 11.8724 19.304 12.6789 19.3193C11.3104 20.3933 9.6203 20.9757 7.88063 20.9724C7.57262 20.9726 7.26488 20.9547 6.95898 20.9187C8.72605 22.0539 10.7825 22.6565 12.8828 22.6545C19.9894 22.6545 23.8757 16.7672 23.8757 11.6617C23.8757 11.4943 23.8716 11.3276 23.8647 11.1623C24.6207 10.6129 25.2726 9.93322 25.7899 9.15503Z" fill="white"/></svg>